<svg width="430" height="122" viewBox="0 0 430 122" fill="none" xmlns="http://www.w3.org/2000/svg">
<path fill-rule="evenodd" clip-rule="evenodd" d="M-6 1.6936L8.73333 24.4714C23.4667 47.2492 52.9333 92.8047 82.4 101.916C111.867 111.027 141.333 83.6936 170.8 88.2492C200.267 92.8047 229.733 129.249 259.2 124.694C288.667 120.138 318.133 74.5825 347.6 56.3603C377.067 38.138 406.533 47.2492 421.267 51.8047L436 56.3603V165.694H421.267C406.533 165.694 377.067 165.694 347.6 165.694C318.133 165.694 288.667 165.694 259.2 165.694C229.733 165.694 200.267 165.694 170.8 165.694C141.333 165.694 111.867 165.694 82.4 165.694C52.9333 165.694 23.4667 165.694 8.73333 165.694H-6V1.6936Z" fill="#B3E8C2" fill-opacity="0.25" stroke="#14A045" stroke-opacity="0.25"/>
</svg>
